# xmcd
#
# Track frame offsets: 
#        150
#        19987
#        30496
#        42435
#        54492
#        75167
#        82811
#        110318
#        130950
#        146611
#        166763
#        178758
#        198531
#        215550
#        225968
#        237951
#
# Disc length: 3696 seconds
#
# Revision: 0
# Processed by: cddbd v1.5.2PL0 Copyright (c) Steve Scherf et al.
# Submitted via: ExactAudioCopy v0.95b4
#
DISCID=c70e6e10
DTITLE=Pappo's Blues - El Hombre Suburbano
DYEAR=1994
DGENRE=Blues
TTITLE0=Algo ha cambiado
TTITLE1=El hombre suburbano
TTITLE2=Tren de las 16
TTITLE3=El viejo
TTITLE4=Insoluble
TTITLE5=Adios Willy
TTITLE6=Llegara la paz
TTITLE7=Gris y amarillo
TTITLE8=Solitario Juan
TTITLE9=Especies
TTITLE10=Desconfio de la vida
TTITLE11=Blues para Santa Fe
TTITLE12=Hansen
TTITLE13=Hay tiempo para elegir
TTITLE14=Cementerio
TTITLE15=Adonde esta la libertad
EXTD=
EXTT0=
EXTT1=
EXTT2=
EXTT3=
EXTT4=
EXTT5=
EXTT6=
EXTT7=
EXTT8=
EXTT9=
EXTT10=
EXTT11=
EXTT12=
EXTT13=
EXTT14=
EXTT15=
PLAYORDER=
